<svg xmlns="http://www.w3.org/2000/svg" viewBox="0 0 64 64" stroke="currentColor" fill="none" stroke-width="1.5" stroke-linecap="round" stroke-linejoin="round"><g id="frame"><polygon points="32,7 53,19 53,45 32,57 11,45 11,19"/><line x1="32" y1="7" x2="32" y2="3"/><line x1="53" y1="19" x2="57" y2="17"/><line x1="53" y1="45" x2="57" y2="47"/><line x1="32" y1="57" x2="32" y2="61"/><line x1="11" y1="45" x2="7" y2="47"/><line x1="11" y1="19" x2="7" y2="17"/></g><g id="symbol"><path d="M24 22 L22 22 L22 42 L24 42"/><path d="M40 22 L42 22 L42 42 L40 42"/><path d="M27 28 L37 28 M27 36 L37 36"/></g></svg>